<?xml version="1.0" encoding="UTF-8"?>
<svg width="34px" height="27px" viewBox="0 0 34 27" version="1.1" xmlns="http://www.w3.org/2000/svg" xmlns:xlink="http://www.w3.org/1999/xlink">
    <!-- Generator: Sketch 59.1 (86144) - https://sketch.com -->
    <title>Group 15</title>
    <desc>Created with Sketch.</desc>
    <defs>
        <polygon id="path-1" points="0 26.9152759 0 0.0188275862 34 0.0188275862 34 26.9152759"></polygon>
    </defs>
    <g id="Home" stroke="none" stroke-width="1" fill="none" fill-rule="evenodd">
        <g id="Website" transform="translate(-577.000000, -2002.000000)">
            <g id="Group-15" transform="translate(577.000000, 2002.000000)">
                <mask id="mask-2" fill="white">
                    <use xlink:href="#path-1"></use>
                </mask>
                <g id="Clip-14"></g>
                <path d="M29.9941818,4.27155517 C31.4335152,3.43155517 32.5400606,2.10121034 33.0603636,0.515348276 C31.7127273,1.29327931 30.2198182,1.8581069 28.6310909,2.16327931 C27.3586667,0.84327931 25.5453333,0.0187965517 23.5393333,0.0187965517 C19.6870303,0.0187965517 16.5641818,3.05914138 16.5641818,6.80914138 C16.5641818,7.34086552 16.626,7.85914138 16.7444848,8.3556931 C10.9469697,8.07327931 5.80781818,5.37017586 2.36660606,1.26121034 C1.7669697,2.26465862 1.42284848,3.43052069 1.42284848,4.67500345 C1.42284848,7.03052069 2.65406061,9.10879655 4.52612121,10.3274172 C3.38248485,10.2912103 2.30684848,9.98603793 1.36618182,9.4781069 L1.36515152,9.56293448 C1.36515152,12.8525897 3.76987879,15.5970724 6.96072727,16.2208655 C6.37551515,16.3760379 5.75939394,16.4587966 5.12369697,16.4587966 C4.67345455,16.4587966 4.23660606,16.4163828 3.81109091,16.3377621 C4.69818182,19.0346586 7.2749697,20.9981069 10.3267273,21.0529345 C7.93951515,22.8736241 4.93206061,23.959831 1.66393939,23.959831 C1.10139394,23.959831 0.546060606,23.9277621 0,23.8646586 C3.08678788,25.7908655 6.75363636,26.9153483 10.6924848,26.9153483 C23.5228485,26.9153483 30.5392121,16.5684517 30.5392121,7.59638276 C30.5392121,7.30155517 30.5330303,7.00879655 30.5196364,6.71707241 C31.8827273,5.76017586 33.0644848,4.56431379 34,3.20293448 C32.7492121,3.74293448 31.4046667,4.1081069 29.9941818,4.27155517 Z" id="Fill-13" fill="#000000" mask="url(#mask-2)"></path>
            </g>
        </g>
    </g>
</svg>