<?xml version="1.0" encoding="UTF-8"?>
<svg width="34px" height="27px" viewBox="0 0 34 27" version="1.1" xmlns="http://www.w3.org/2000/svg" xmlns:xlink="http://www.w3.org/1999/xlink">
    <!-- Generator: Sketch 59.1 (86144) - https://sketch.com -->
    <title>youtube</title>
    <desc>Created with Sketch.</desc>
    <g id="Home" stroke="none" stroke-width="1" fill="none" fill-rule="evenodd">
        <g id="Website" transform="translate(-697.000000, -2002.000000)" fill="#000000" fill-rule="nonzero">
            <g id="youtube" transform="translate(697.000000, 2002.000000)">
                <path d="M34,14.9512586 C34,18.0584661 33.6598862,21.1646106 33.6598862,21.1646106 C33.6598862,21.1646106 33.3272486,23.8105856 32.3090273,24.9738838 C31.0155236,26.5016798 29.5669154,26.5106564 28.9026446,26.6006588 C24.1443987,26.9865351 17,27 17,27 C17,27 8.15938405,26.9089346 5.43958936,26.6141237 C4.6828138,26.4543164 2.98548071,26.5004987 1.6909727,24.9727027 C0.671747107,23.8094044 0.340113818,21.1634295 0.340113818,21.1634295 C0.340113818,21.1634295 0,18.058348 0,14.9500774 L0,12.0385837 C0,8.93243917 0.340113818,5.82629465 0.340113818,5.82629465 C0.340113818,5.82629465 0.67275138,3.17913856 1.6909727,2.01371427 C2.98548071,0.485918266 4.43308456,0.476941652 5.09735541,0.390364576 C9.85459701,0 16.9915195,0 16.9915195,0 L17.0074763,0 C17.0074763,0 24.1443987,0 28.9026446,0.390364576 C29.5669154,0.476941652 31.0155236,0.486036379 32.3090273,2.01371427 C33.3282529,3.17925667 33.6598862,5.82629465 33.6598862,5.82629465 C33.6598862,5.82629465 34,8.93243917 34,12.0396467 L34,14.9512586 L34,14.9512586 Z M14,19 L23,13.5 L14,8 L14,19 Z" id="Shape"></path>
            </g>
        </g>
    </g>
</svg>