<svg width="30" height="30" viewBox="0 0 30 30" fill="none" xmlns="http://www.w3.org/2000/svg">
<path fill-rule="evenodd" clip-rule="evenodd" d="M30 15C30 23.2843 23.2843 30 15 30C6.71573 30 0 23.2843 0 15C0 6.71573 6.71573 0 15 0C23.2843 0 30 6.71573 30 15Z" fill="#424242"/>
<path fill-rule="evenodd" clip-rule="evenodd" d="M14.9997 6C10.0377 6 6 10.0371 6 14.9997C6 19.9623 10.0377 23.9994 14.9997 23.9994C19.9623 23.9994 24 19.9629 24 14.9997C24 10.0371 19.9623 6 14.9997 6ZM23.2218 14.9995C23.2218 15.1571 23.2078 15.3108 23.1983 15.4664C23.1405 15.3203 23.0528 15.1297 23.0319 15.0478C23.0014 14.9233 22.8153 14.4894 22.8153 14.4894C22.8153 14.4894 22.6291 14.2416 22.5053 14.1794C22.382 14.1171 22.2886 13.9621 22.0714 13.8389C21.8541 13.7144 21.762 13.6528 21.5765 13.6528C21.3897 13.6528 21.2049 13.4044 20.987 13.2805C20.7697 13.1573 20.7392 13.2189 20.7392 13.2189C20.7392 13.2189 20.987 13.5905 20.987 13.6833C20.987 13.776 21.2652 13.931 21.5454 13.8687C21.5454 13.8687 21.7309 14.2099 21.8236 14.3026C21.9164 14.3954 21.7925 14.4888 21.607 14.6126C21.4209 14.7359 21.452 14.7054 21.358 14.7981C21.2652 14.8909 20.9559 15.0472 20.8625 15.1081C20.7697 15.1698 20.3981 15.3559 20.2126 15.1698C20.1218 15.0802 20.1497 14.8915 20.0887 14.767C20.0265 14.6431 19.376 13.6826 19.066 13.2494C19.012 13.1731 18.8798 12.9381 18.7877 12.8777C18.695 12.8149 19.005 12.8149 19.005 12.8149C19.005 12.8149 19.005 12.5976 18.9739 12.4432C18.9421 12.2882 19.005 12.0716 19.005 12.0716C19.005 12.0716 18.695 12.2571 18.601 12.3194C18.5089 12.3816 18.4155 12.1961 18.2922 12.0405C18.1684 11.8861 18.0438 11.6993 18.0134 11.5443C17.9822 11.39 18.1684 11.3277 18.1684 11.3277L18.4466 11.1734C18.4466 11.1734 18.7877 11.1117 19.005 11.1422C19.2216 11.1734 19.5621 11.2045 19.5621 11.2045C19.5621 11.2045 19.6549 10.9872 19.531 10.8945C19.4077 10.8017 19.1276 10.6467 19.0037 10.6779C18.8805 10.7083 19.0653 10.5229 19.2197 10.399L18.8767 10.3367C18.8767 10.3367 18.5648 10.4917 18.4714 10.5229C18.3786 10.5533 18.2173 10.6156 18.0928 10.7706C17.9695 10.9256 18.1423 11.1422 18.0184 11.2045C17.8952 11.2667 17.8113 11.2972 17.718 11.3277C17.6252 11.3588 17.3305 11.3277 17.3305 11.3277C17.0103 11.3277 17.2155 11.6199 17.2987 11.7235L17.0509 11.4211L16.8673 10.9879C16.8673 10.9879 16.6031 10.8024 16.4792 10.7407C16.3553 10.6785 15.9735 10.4619 15.9735 10.4619L16.0002 10.7407L16.3591 11.1041L16.3909 11.1124L16.5777 11.3601L16.1654 11.3912V11.146C15.7766 11.052 15.8783 10.9555 15.8344 10.9256C15.7423 10.864 15.527 10.7083 15.527 10.7083C15.527 10.7083 15.1623 10.7706 15.0689 10.8017C14.9756 10.8329 14.9495 10.9256 14.7646 10.9872C14.5779 11.0495 14.494 11.1422 14.4324 11.235C14.3708 11.3277 14.1688 11.6066 14.0462 11.7305C13.9217 11.855 13.6917 11.8232 13.599 11.8232C13.5056 11.8232 13.0583 11.6993 13.0583 11.6993V11.174C13.0583 11.174 13.1187 10.8792 13.0882 10.7865L13.3595 10.7407L13.8124 10.6474L13.9452 10.554L14.1357 10.3062C14.1357 10.3062 13.9217 10.1512 14.076 9.9346C14.1504 9.83042 14.4178 9.81073 14.5417 9.71798C14.6649 9.62523 14.8523 9.56298 14.8523 9.56298C14.8523 9.56298 15.0696 9.37748 15.2862 9.16023C15.2862 9.16023 15.4412 9.06684 15.6267 9.00459C15.6267 9.00459 16.154 9.4696 16.2473 9.4696C16.3407 9.4696 16.6812 9.25297 16.6812 9.25297C16.6812 9.25297 16.774 8.97473 16.7435 8.88135C16.7123 8.7886 16.5573 8.4786 16.5573 8.4786C16.5573 8.4786 16.4646 8.6336 16.3718 8.75747C16.2791 8.88135 16.2168 9.03635 16.2168 9.03635C16.2168 9.03635 15.783 9.00649 15.7525 8.91375C15.7207 8.82036 15.6597 8.66727 15.628 8.57515C15.5981 8.48177 15.3497 8.48495 15.1649 8.5472C14.9781 8.60946 15.1947 8.21306 15.1947 8.21306C15.1947 8.21306 15.3815 7.97928 15.5047 7.97928C15.628 7.97928 15.9081 7.82047 16.0307 7.78998C16.1552 7.75885 16.5281 7.61719 16.6819 7.61719C16.8369 7.61719 17.023 7.68389 17.1164 7.68389C17.2098 7.68389 17.5807 7.68389 17.5807 7.68389L18.2306 7.6318C18.2306 7.6318 18.789 7.83826 18.6022 7.96277C18.6022 7.96277 18.8201 8.09681 18.9129 8.18955C18.9999 8.27722 19.2248 8.10888 19.3537 8.03709C21.6718 9.49183 23.2218 12.0653 23.2218 14.9995ZM8.43863 10.1511C8.43863 10.275 8.26965 10.3048 8.43863 10.6161C8.65462 11.0188 8.46912 11.205 8.46912 11.205C8.46912 11.205 7.94186 11.5766 7.84911 11.6389C7.75636 11.7011 7.50861 12.0416 7.66298 11.9482C7.81798 11.8555 8.00348 11.7627 7.84911 12.0105C7.69411 12.2589 7.41523 12.661 7.35361 12.8166C7.29199 12.9723 6.98199 13.3432 6.98199 13.5294C6.98199 13.7155 6.85811 14.0878 6.88924 14.2428C6.9102 14.3508 6.84159 14.669 6.7876 14.7999C6.82952 13.058 7.41587 11.4527 8.384 10.1396C8.41576 10.1428 8.43863 10.1511 8.43863 10.1511ZM9.43417 8.96362C10.192 8.2642 11.0801 7.70644 12.0597 7.3291C11.9631 7.45298 11.8462 7.58003 11.8462 7.58003C11.8462 7.58003 11.6296 7.57939 11.2262 8.01391C10.8241 8.44779 10.9169 8.32391 10.8241 8.44715C10.7314 8.57039 10.7619 8.60216 10.5446 8.75779C10.3286 8.91216 10.2352 9.09829 10.2352 9.09829L9.89409 9.22217L9.61585 9.09829C9.61585 9.09829 9.36683 9.19167 9.39796 9.06716C9.40685 9.03413 9.42019 8.99983 9.43417 8.96362ZM13.1479 9.68641L13.0247 9.50091L13.1479 9.22204L13.4465 9.34146V8.78816L13.7317 8.63379L13.9686 8.97429L14.3333 9.37767L14.0913 9.56317L13.4458 9.68704V9.35862L13.1479 9.68641ZM17.1767 12.5995C17.2491 12.5423 17.4861 12.6922 17.4861 12.6922C17.4861 12.6922 18.2605 12.8472 18.3843 12.94C18.5089 13.0334 18.7255 13.0956 18.7877 13.189C18.85 13.2818 19.066 13.5606 19.0965 13.6534C19.1282 13.7461 19.2832 14.0879 19.3144 14.2111C19.3455 14.335 19.4382 14.645 19.531 14.8C19.6237 14.9557 20.151 15.6367 20.3365 15.9467L20.8955 15.8539C20.8955 15.8539 20.8326 16.1322 20.771 16.2255C20.7094 16.3183 20.5233 16.566 20.4305 16.6899C20.3371 16.8138 20.2139 16.9999 20.0278 17.1543C19.8423 17.3087 19.841 17.4637 19.7489 17.5882C19.6561 17.712 19.5316 17.9909 19.5316 17.9909C19.5316 17.9909 19.5939 18.6109 19.6244 18.7348C19.6549 18.8587 19.4077 19.1992 19.4077 19.1992L19.1282 19.4787L18.7547 19.9736L18.7852 20.4379C18.7852 20.4379 18.5031 20.6558 18.3475 20.7791C18.1938 20.9023 18.2179 20.9957 18.094 21.1202C17.9708 21.2434 17.4861 21.4607 17.3622 21.4918C17.2383 21.523 16.5548 21.6157 16.5548 21.6157V21.3375L16.5408 21.0274C16.5408 21.0274 16.4468 20.6558 16.3534 20.5319C16.26 20.4081 16.3007 20.2213 16.1457 20.0669C15.9907 19.9119 15.9335 19.7887 15.9024 19.6947C15.8713 19.6019 15.9361 19.3237 15.9361 19.3237C15.9361 19.3237 16.0612 18.9826 16.1228 18.8587C16.1851 18.7348 16.1235 18.5493 16.0612 18.4248C15.999 18.3003 15.9691 17.9903 15.9691 17.8982C15.9691 17.8054 15.7201 17.6498 15.6273 17.557C15.5346 17.4643 15.5657 17.3398 15.5657 17.2172C15.5657 17.092 15.473 16.8138 15.5035 16.5965C15.5346 16.3799 15.2252 16.5343 15.0391 16.5965C14.8529 16.6588 14.7297 16.5343 14.7297 16.3481C14.7297 16.162 14.3892 16.3177 14.172 16.4409C13.9541 16.5648 13.7069 16.5648 13.4579 16.6582C13.2108 16.7509 13.0876 16.5654 13.0876 16.5654C13.0876 16.5654 12.8697 16.3799 12.7159 16.2865C12.5603 16.1938 12.4053 16.0083 12.2808 15.8533C12.1576 15.6976 11.8469 15.2326 11.8171 15.0478C11.7859 14.861 11.8171 14.7365 11.8171 14.5199C11.8171 14.3033 11.8171 14.1794 11.8475 14.0244C11.8787 13.8694 11.9714 13.6832 12.0648 13.5282C12.1576 13.3732 12.4987 13.1877 12.5908 13.1255C12.6835 13.0639 12.9008 12.8784 12.9008 12.7539C12.9008 12.63 13.0253 12.5684 13.0863 12.4439C13.1492 12.32 13.3658 12.0106 13.6447 12.1345C13.6447 12.1345 13.8918 12.104 13.9846 12.0729C14.0773 12.0417 14.3251 11.9496 14.4477 11.8874C14.5715 11.8251 14.8803 11.7959 14.8803 11.7959C14.8803 11.7959 15.1242 11.8931 15.217 11.8931C15.3097 11.8931 15.6121 11.8391 15.6121 11.8391C15.6121 11.8391 15.7518 12.2882 15.7518 12.3816C15.7518 12.475 15.8446 12.5671 16.0002 12.6294C16.1533 12.6922 16.8667 12.8479 17.1767 12.5995ZM20.7399 18.6727C20.7399 18.7654 20.7088 19.0138 20.6777 19.1377C20.6453 19.2616 20.5843 19.4788 20.5538 19.6014C20.5227 19.7259 20.3677 19.9737 20.2755 20.0359C20.1828 20.0982 20.0272 20.2843 19.935 20.3148C19.8423 20.3459 19.7794 20.0976 19.8105 19.9737C19.8423 19.8498 19.9967 19.5093 19.9967 19.5093C19.9967 19.5093 20.0278 19.3238 20.0583 19.1993C20.0901 19.0761 20.4617 18.9211 20.4617 18.9211L20.7101 18.4561C20.7088 18.4554 20.7399 18.5806 20.7399 18.6727ZM6.98975 16.8271C7.02977 16.8373 7.08694 16.8665 7.16762 16.9383C7.28451 17.04 7.35375 17.0921 7.50875 17.1549C7.66312 17.2178 7.72537 17.3093 7.9115 17.4027C8.09763 17.4961 8.03601 17.4345 8.28313 17.7127C8.53151 17.9909 8.50039 17.9909 8.56201 18.1466C8.62363 18.3022 8.71701 18.4559 8.77926 18.55C8.84152 18.6427 9.02701 18.7043 9.11976 18.7666C9.21251 18.8288 9.36751 18.8905 9.46026 18.8905C9.55364 18.8905 9.83252 19.1693 9.98752 19.1998C10.1425 19.2316 10.1425 19.5416 10.1425 19.5416L9.98752 19.9748L9.86301 20.4392L9.98752 20.8108C9.98752 20.8108 9.80076 20.9665 9.67815 20.9665C9.56381 20.9665 9.52506 21.0389 9.39991 21.0046C8.21833 19.9012 7.36137 18.4579 6.98975 16.8271Z" fill="white"/>
</svg>
